<svg width="29" height="22" viewBox="0 0 29 22" fill="none" xmlns="http://www.w3.org/2000/svg">
<path id="&#226;&#128;&#156;" d="M29 0C28.3867 2.24874 27.7734 4.68731 27.1601 7.31571C26.576 9.9149 26.0357 12.4849 25.5393 15.0257C25.0428 17.5665 24.6485 19.8736 24.3565 21.9471H16.6027L15.9456 20.9834C16.4713 18.8515 17.143 16.5735 17.9607 14.1495C18.8077 11.7256 19.713 9.30161 20.6767 6.87764C21.6697 4.42447 22.6626 2.13192 23.6556 0H29ZM12.8792 0C12.2659 2.24874 11.6526 4.68731 11.0393 7.31571C10.4552 9.9149 9.9149 12.4849 9.41843 15.0257C8.92195 17.5665 8.52769 19.8736 8.23565 21.9471H0.52568L0 20.9834C0.52568 18.8515 1.18278 16.5735 1.9713 14.1495C2.78902 11.7256 3.67976 9.30161 4.6435 6.87764C5.60725 4.42447 6.5856 2.13192 7.57855 0H12.8792Z" fill="#002D69"/>
</svg>
